<svg width="34" height="34" fill="none" xmlns="http://www.w3.org/2000/svg"><path d="M25.866 5.805a2.97 2.97 0 0 0-.875-2.112L22.172.875A3.055 3.055 0 0 0 20.041 0h-.17v5.977h5.995v-.172Z" fill="#2405F2"/><path d="M18.191 20.555c.19-.579.524-1.117.957-1.554l6.745-6.717V7.969h-7c-.55 0-.963-.446-.963-.996V0H2.988A2.992 2.992 0 0 0 0 2.988v28.024A2.992 2.992 0 0 0 2.988 34h19.89c1.648 0 3.015-1.34 3.015-2.988v-7.434l-1.095 1.067a3.96 3.96 0 0 1-1.549.956l-3.167 1.057-.482.026a2.5 2.5 0 0 1-2.022-1.037 2.498 2.498 0 0 1-.338-2.244l.951-2.848ZM4.981 17.93h9.928a.996.996 0 1 1 0 1.992H4.98a.996.996 0 1 1 0-1.992Zm-.997-2.989c0-.55.446-.996.996-.996h9.93a.996.996 0 1 1 0 1.992H4.98a.996.996 0 0 1-.996-.996Zm0 7.97c0-.551.446-.997.996-.997h9.93a.996.996 0 1 1 0 1.992H4.98a.995.995 0 0 1-.996-.996Zm14.91 4.98a.995.995 0 1 1 0 1.992h-5.977a.995.995 0 1 1 0-1.992h5.976ZM4.98 11.953a.996.996 0 1 1 0-1.992h13.913a.996.996 0 1 1 0 1.992H4.98Z" fill="#2405F2"/><path d="m19.996 21.436-.867 2.6c-.13.39.24.76.63.63l2.599-.867-2.362-2.363ZM27.732 13.235l-6.56 6.56 2.83 2.83 6.559-6.56-2.829-2.83ZM33.415 10.378c-.35-.352-.866-.554-1.413-.554-.546 0-1.062.202-1.414.555l-1.447 1.447 2.828 2.829 1.448-1.448a2.005 2.005 0 0 0-.002-2.83Z" fill="#2405F2"/></svg>