<svg width="155" height="32" fill="none" xmlns="http://www.w3.org/2000/svg"><g clip-path="url(#a)" fill="#282938"><path d="M50.335 25.492a3.465 3.465 0 0 1-2.175-.621 2.022 2.022 0 0 1-.82-1.697V11.168a.335.335 0 0 1 .225-.36.341.341 0 0 1 .152-.015h2.188c.248 0 .365.13.365.375v11.074c0 .492.221.738.677.738.193.008.386-.014.573-.065.26 0 .404.078.417.31l.195 1.62a.337.337 0 0 1-.312.401c-.48.158-.98.24-1.485.246ZM62.643 24.107a6.155 6.155 0 0 1-7.814 0 5.166 5.166 0 0 1-1.509-3.646c0-1.365.542-2.675 1.509-3.645a6.182 6.182 0 0 1 7.814 0 5.243 5.243 0 0 1 1.471 3.639c0 1.356-.527 2.66-1.471 3.64v.012Zm-5.757-1.71a2.782 2.782 0 0 0 3.725 0 2.891 2.891 0 0 0 0-3.807 2.783 2.783 0 0 0-3.724 0 2.892 2.892 0 0 0 0 3.808ZM76.161 15.752c.248 0 .365.13.365.376v9.286a4.204 4.204 0 0 1-1.445 3.328 5.489 5.489 0 0 1-3.79 1.296 6.12 6.12 0 0 1-3.53-.972 3.897 3.897 0 0 1-1.706-2.59c0-.26 0-.376.352-.376h2.188a.484.484 0 0 1 .43.298 1.7 1.7 0 0 0 .794.92c.45.231.952.347 1.459.337a2.316 2.316 0 0 0 1.68-.596 2.199 2.199 0 0 0 .612-1.62v-.815a4.38 4.38 0 0 1-2.71.842 5.078 5.078 0 0 1-3.698-1.412 5.165 5.165 0 0 1-1.464-3.6c0-1.344.525-2.635 1.464-3.6a5.096 5.096 0 0 1 3.699-1.4c1-.026 1.98.29 2.774.894v-.207a.336.336 0 0 1 .364-.376l2.162-.013Zm-5.053 7.408a2.303 2.303 0 0 0 1.784-.764 3.162 3.162 0 0 0 0-3.885 2.277 2.277 0 0 0-1.77-.751 2.357 2.357 0 0 0-1.811.764 2.736 2.736 0 0 0-.703 1.942 2.788 2.788 0 0 0 .69 1.93 2.358 2.358 0 0 0 1.81.764ZM87.765 24.106a6.182 6.182 0 0 1-7.814 0 5.256 5.256 0 0 1-1.472-3.645c0-1.359.527-2.665 1.472-3.646a6.194 6.194 0 0 1 7.814 0 5.243 5.243 0 0 1 1.471 3.64c0 1.355-.527 2.66-1.47 3.638v.013Zm-5.77-1.71a2.609 2.609 0 0 0 1.876.713 2.619 2.619 0 0 0 1.862-.712 2.93 2.93 0 0 0 0-3.808 2.609 2.609 0 0 0-1.862-.712 2.62 2.62 0 0 0-1.875.712 2.93 2.93 0 0 0 0 3.808ZM93.939 13.551a1.894 1.894 0 0 1-2.488 0 1.566 1.566 0 0 1-.365-1.76c.085-.196.21-.373.365-.52a1.933 1.933 0 0 1 2.488 0 1.567 1.567 0 0 1 .494 1.14 1.561 1.561 0 0 1-.494 1.14Zm.273 11.941a3.517 3.517 0 0 1-2.175-.621 2.047 2.047 0 0 1-.807-1.697V16.13a.336.336 0 0 1 .378-.376h2.188c.247 0 .364.13.364.376v6.113c0 .492.222.738.664.738.198.007.395-.015.587-.065.26 0 .403.078.416.31l.196 1.62a.335.335 0 0 1-.313.401 4.964 4.964 0 0 1-1.498.247ZM104.072 15.442a5.132 5.132 0 0 1 3.725 1.399 5.294 5.294 0 0 1 1.433 3.62 5.294 5.294 0 0 1-1.433 3.62 5.09 5.09 0 0 1-3.725 1.412 4.498 4.498 0 0 1-2.722-.843v4.676c0 .246-.13.363-.377.363h-2.188a.316.316 0 0 1-.279-.086.31.31 0 0 1-.086-.277v-10.62a.67.67 0 0 0-.457-.737.683.683 0 0 0-.311-.027h-.43c-.287 0-.43-.104-.43-.311v-1.529a.412.412 0 0 1 .3-.427 3.93 3.93 0 0 1 1.406-.233c.478-.042.958.059 1.378.29.42.23.761.58.98 1.005a4.408 4.408 0 0 1 3.216-1.295Zm-2.031 6.955a2.484 2.484 0 0 0 1.797.763 2.495 2.495 0 0 0 1.797-.763 2.788 2.788 0 0 0 .716-1.982 2.75 2.75 0 0 0-.716-1.981 2.484 2.484 0 0 0-1.797-.764 2.499 2.499 0 0 0-1.797.764 2.854 2.854 0 0 0-.691 1.981c-.026.723.22 1.43.691 1.982ZM115.375 25.492a6.308 6.308 0 0 1-3.347-.803 3.16 3.16 0 0 1-1.51-2.292c0-.26.091-.39.377-.39h1.915a.493.493 0 0 1 .43.286c.273.699.989 1.049 2.135 1.049.401.018.798-.062 1.16-.233a.757.757 0 0 0 .443-.634c0-.338-.209-.57-.625-.726a7.092 7.092 0 0 0-1.524-.324 14.59 14.59 0 0 1-1.824-.324 3.002 3.002 0 0 1-1.524-.868 2.786 2.786 0 0 1-.521-1.002 2.745 2.745 0 0 1 .306-2.19c.199-.324.463-.604.776-.823a5.388 5.388 0 0 1 3.151-.829 5.781 5.781 0 0 1 3.074.765 2.896 2.896 0 0 1 1.433 2.033c0 .259-.118.389-.352.389h-1.927a.412.412 0 0 1-.233-.057.413.413 0 0 1-.159-.176 1.3 1.3 0 0 0-.676-.687 2.307 2.307 0 0 0-1.121-.259 2.276 2.276 0 0 0-1.107.22.648.648 0 0 0-.416.596.832.832 0 0 0 .624.764 7.121 7.121 0 0 0 1.55.389c.61.08 1.214.192 1.811.336a3 3 0 0 1 1.524.868 2.435 2.435 0 0 1 .638 1.774 2.591 2.591 0 0 1-1.212 2.253 5.714 5.714 0 0 1-3.269.895ZM133.622 24.845a.348.348 0 0 1-.168.356.353.353 0 0 1-.131.045 5.059 5.059 0 0 1-1.472.246 2.903 2.903 0 0 1-2.605-1.126 4.728 4.728 0 0 1-3.32 1.126 4.059 4.059 0 0 1-3.048-1.178 4.236 4.236 0 0 1-1.159-3.122V16.13c0-.247.117-.376.364-.376h2.189c.246 0 .364.13.364.376v4.675a2.282 2.282 0 0 0 .56 1.593 1.952 1.952 0 0 0 1.497.609 2.172 2.172 0 0 0 1.564-.57c.198-.203.352-.445.454-.71.1-.265.145-.548.132-.831v-4.766c0-.247.116-.376.364-.376h2.214c.248 0 .364.13.364.376v6.1c0 .505.222.75.653.75.201.009.403-.013.598-.064a.344.344 0 0 1 .291.052.338.338 0 0 1 .139.259l.156 1.619ZM154.317 24.845a.327.327 0 0 1-.3.402c-.483.156-.989.24-1.498.246a3.494 3.494 0 0 1-2.175-.622 2.014 2.014 0 0 1-.872-1.697v-3.043a2.282 2.282 0 0 0-.548-1.593 1.857 1.857 0 0 0-1.458-.609 1.634 1.634 0 0 0-1.302.57c-.344.434-.52.976-.495 1.528v4.78c0 .245-.118.375-.364.375h-2.202a.344.344 0 0 1-.281-.096.332.332 0 0 1-.08-.129.323.323 0 0 1-.017-.15V20.13a2.385 2.385 0 0 0-.508-1.593 1.686 1.686 0 0 0-1.302-.609 1.904 1.904 0 0 0-1.432.57c-.372.42-.564.969-.534 1.528v4.78a.336.336 0 0 1-.226.36.341.341 0 0 1-.152.015h-2.123c-.247 0-.365-.13-.365-.376v-6.1a.664.664 0 0 0-.191-.574.675.675 0 0 0-.576-.19h-.431c-.287 0-.43-.104-.43-.31v-1.529a.418.418 0 0 1 .3-.427c.45-.163.927-.242 1.407-.234a2.449 2.449 0 0 1 2.318 1.192 4.403 4.403 0 0 1 3.308-1.192 3.756 3.756 0 0 1 3.086 1.373 4.31 4.31 0 0 1 3.413-1.373 4.134 4.134 0 0 1 3.086 1.179 4.212 4.212 0 0 1 1.16 3.121v2.5c0 .492.22.738.637.738.203.01.405-.012.6-.065.269 0 .412.104.429.311l.118 1.62ZM1.601 14.07c.961-3.84 3.186-7.251 6.322-9.688 3.135-2.438 7-3.762 10.98-3.762 3.98 0 7.845 1.324 10.98 3.761a17.722 17.722 0 0 1 6.322 9.689h-1.563a12.67 12.67 0 0 0-7.384 2.24 3.74 3.74 0 0 1-.39.246h-.183a3.721 3.721 0 0 1-.39-.246 13.297 13.297 0 0 0-7.392-2.241c-2.633 0-5.206.78-7.39 2.241-.126.09-.256.173-.391.246h-.183a3.732 3.732 0 0 1-.39-.246 12.67 12.67 0 0 0-7.385-2.24H1.601Zm30.228 8.12a4.405 4.405 0 0 1 2.813-.92h2.097v-4.157h-2.097a8.341 8.341 0 0 0-4.988 1.58 4.758 4.758 0 0 1-5.626 0 8.891 8.891 0 0 0-10.12 0 4.758 4.758 0 0 1-5.626 0 8.341 8.341 0 0 0-5.053-1.58H1.067v4.158h2.097a4.405 4.405 0 0 1 2.813.92 8.864 8.864 0 0 0 10.107 0 4.43 4.43 0 0 1 2.813-.92 4.379 4.379 0 0 1 2.813.92 8.89 8.89 0 0 0 10.12 0Zm0 7.434a4.405 4.405 0 0 1 2.813-.92h2.097v-4.157h-2.097a8.34 8.34 0 0 0-4.988 1.58 4.758 4.758 0 0 1-5.626 0 8.89 8.89 0 0 0-10.12 0 4.758 4.758 0 0 1-5.626 0 8.34 8.34 0 0 0-5.053-1.58H1.067v4.158h2.097a4.405 4.405 0 0 1 2.813.92 8.864 8.864 0 0 0 10.107 0 4.431 4.431 0 0 1 2.813-.92 4.379 4.379 0 0 1 2.813.92 8.89 8.89 0 0 0 10.12 0Z"/></g><defs><clipPath id="a"><path fill="#fff" transform="translate(.724)" d="M0 0h153.743v32H0z"/></clipPath></defs></svg>