<svg width="138" height="32" fill="none" xmlns="http://www.w3.org/2000/svg"><path d="M33.877 7.806h3.122v15.162h-3.122V7.806ZM38.748 17.774c0-1.09.32-2.157.923-3.064a5.474 5.474 0 0 1 2.457-2.028c1-.416 2.1-.523 3.161-.308a5.451 5.451 0 0 1 2.797 1.516 5.523 5.523 0 0 1 1.489 2.829 5.55 5.55 0 0 1-.324 3.185 5.499 5.499 0 0 1-2.026 2.466 5.432 5.432 0 0 1-3.045.913 5.354 5.354 0 0 1-3.865-1.603 5.473 5.473 0 0 1-1.568-3.906Zm7.826 0a2.405 2.405 0 0 0-.43-1.311 2.356 2.356 0 0 0-3.642-.295 2.4 2.4 0 0 0-.486 2.599c.18.433.485.803.874 1.063.388.26.844.4 1.311.4a2.296 2.296 0 0 0 1.707-.711 2.332 2.332 0 0 0 .645-1.745h.021ZM61.967 12.58v9.874c0 3.484-2.706 4.963-5.444 4.963a5.169 5.169 0 0 1-2.796-.558 5.222 5.222 0 0 1-2.085-1.96l2.633-1.532c.214.434.553.792.973 1.026.42.234.902.334 1.38.286a2.067 2.067 0 0 0 1.685-.559 2.1 2.1 0 0 0 .646-1.666V21.5a3.677 3.677 0 0 1-1.347 1.03 3.648 3.648 0 0 1-1.661.314 5.182 5.182 0 0 1-3.68-1.537 5.268 5.268 0 0 1-1.524-3.71c0-1.391.548-2.726 1.524-3.71a5.183 5.183 0 0 1 3.68-1.536 3.65 3.65 0 0 1 3.008 1.343v-1.05l3.008-.062Zm-3.008 4.985a2.534 2.534 0 0 0-.37-1.427 2.505 2.505 0 0 0-1.098-.973 2.48 2.48 0 0 0-2.756.477 2.538 2.538 0 0 0-.59 2.756c.186.466.505.866.918 1.147.413.282.9.433 1.398.433a2.315 2.315 0 0 0 1.78-.647 2.354 2.354 0 0 0 .718-1.766ZM63.726 17.774c0-1.09.32-2.155.921-3.061a5.473 5.473 0 0 1 2.454-2.029 5.422 5.422 0 0 1 3.159-.312c1.06.214 2.034.74 2.797 1.51a5.523 5.523 0 0 1 1.493 2.824 5.55 5.55 0 0 1-.315 3.184 5.499 5.499 0 0 1-2.017 2.47c-.9.604-1.957.925-3.038.923a5.366 5.366 0 0 1-3.876-1.599 5.483 5.483 0 0 1-1.578-3.91Zm7.827 0a2.405 2.405 0 0 0-.431-1.312 2.377 2.377 0 0 0-1.08-.854 2.355 2.355 0 0 0-2.565.564 2.412 2.412 0 0 0-.48 2.602c.183.433.489.803.879 1.061.39.26.847.396 1.314.395a2.294 2.294 0 0 0 1.707-.711 2.331 2.331 0 0 0 .645-1.745h.01ZM76.08 9.8c0-.37.109-.731.312-1.038.204-.307.493-.547.832-.688a1.839 1.839 0 0 1 2.019.405 1.872 1.872 0 0 1 .401 2.035c-.14.341-.378.633-.682.838a1.842 1.842 0 0 1-1.03.315 1.865 1.865 0 0 1-1.303-.553 1.896 1.896 0 0 1-.549-1.315Zm.302 2.78h3.122v10.388h-3.122V12.58ZM92.868 17.774a5.272 5.272 0 0 1-1.346 3.795 5.17 5.17 0 0 1-3.619 1.713 3.844 3.844 0 0 1-3.121-1.27v5.132h-3.123V12.58h3.122v.976a3.835 3.835 0 0 1 3.122-1.26A5.171 5.171 0 0 1 91.512 14a5.26 5.26 0 0 1 1.357 3.775Zm-3.122 0a2.494 2.494 0 0 0-.444-1.36 2.44 2.44 0 0 0-3.773-.303 2.493 2.493 0 0 0-.499 2.694c.19.45.505.832.91 1.1.403.268.876.41 1.36.408a2.334 2.334 0 0 0 1.787-.717 2.394 2.394 0 0 0 .659-1.822ZM102.37 19.851c0 2.393-2.081 3.41-4.288 3.41a4.49 4.49 0 0 1-2.594-.552 4.54 4.54 0 0 1-1.84-1.924l2.686-1.532c.106.375.337.7.653.924.317.224.7.33 1.085.304.739 0 1.113-.231 1.113-.65 0-1.144-5.068-.536-5.068-4.135 0-2.266 1.894-3.4 4.038-3.4a4.49 4.49 0 0 1 2.344.54c.717.39 1.318.968 1.736 1.675l-2.685 1.427a1.512 1.512 0 0 0-1.384-.913c-.541 0-.865.21-.865.577 0 1.196 5.069.409 5.069 4.25ZM113.684 12.58v10.388h-3.123v-.976a3.554 3.554 0 0 1-1.315.998 3.522 3.522 0 0 1-1.62.293c-2.082 0-3.861-1.5-3.861-4.302v-6.4h3.122v5.927a1.74 1.74 0 0 0 .085.734 1.705 1.705 0 0 0 1.715 1.155c1.125 0 1.915-.671 1.915-2.098V12.58h3.082ZM131.376 16.588v6.38h-3.123V16.86c0-1.05-.489-1.7-1.478-1.7s-1.613.724-1.613 1.952v5.855h-3.122V16.86c0-1.05-.489-1.7-1.478-1.7-.988 0-1.613.724-1.613 1.952v5.855h-3.123V12.58h3.123v.955a3.182 3.182 0 0 1 2.768-1.238 3.032 3.032 0 0 1 1.527.322c.472.24.876.598 1.169 1.042a3.394 3.394 0 0 1 1.319-1.07 3.371 3.371 0 0 1 1.668-.294c2.436 0 3.976 1.7 3.976 4.291ZM15.277 5.078V.618H1.332v30.639h13.947v-4.46a10.728 10.728 0 0 1-7.618-3.18 10.905 10.905 0 0 1-3.155-7.68c0-2.88 1.135-5.642 3.155-7.679a10.728 10.728 0 0 1 7.617-3.18Z" fill="#282938"/><path d="M15.278 5.078v21.72c2.857 0 5.597-1.144 7.617-3.18a10.905 10.905 0 0 0 3.155-7.68c0-2.88-1.134-5.643-3.155-7.68a10.728 10.728 0 0 0-7.617-3.18ZM133.999 12.517a2.3 2.3 0 0 0 2.29-2.308 2.3 2.3 0 0 0-2.29-2.309 2.3 2.3 0 0 0-2.29 2.309 2.3 2.3 0 0 0 2.29 2.308Z" fill="#282938"/></svg>