<svg width="156" height="38" fill="none" xmlns="http://www.w3.org/2000/svg"><path d="M151.461 4.774v8.867h3.091v4.287h-3.091v7.99c0 .78.192 1.364.579 1.754.386.39.966.584 1.739.584H156v5.067h-3.864c-1.545 0-3.477-.292-4.829-1.559-1.353-1.267-1.932-2.923-1.932-5.261V17.83h-2.801v-4.287h2.801v-8.77h6.086Zm-18.064 28.939c-2.801 0-5.216-.974-6.858-2.728-1.739-1.754-2.512-4.093-2.512-6.82v-.683c0-3.02.773-5.456 2.319-7.405 1.545-1.851 3.767-2.826 6.665-2.826 2.608 0 4.733.78 6.182 2.339 1.546 1.656 2.221 3.8 2.221 6.528v3.215h-11.108v.098c.097 1.072.58 1.754 1.256 2.436.676.682 1.642.974 2.704.974 1.16 0 2.029-.097 2.705-.292.676-.195 1.642-.487 2.608-.975l1.449 3.8c-.869.682-1.932 1.17-3.284 1.657-1.352.487-2.898.682-4.347.682Zm-.483-15.785c-.869 0-1.545.293-1.932.974-.386.683-.676 1.56-.773 2.534l.097.097h5.216v-.487c0-1.072-.193-1.754-.579-2.24-.58-.683-1.16-.878-2.029-.878Zm-19.898 15.785c-2.802 0-5.217-.974-6.859-2.728-1.641-1.754-2.511-4.093-2.511-6.82v-.683c0-3.02.773-5.456 2.318-7.405 1.546-1.851 3.767-2.826 6.665-2.826 2.609 0 4.733.78 6.183 2.339 1.448 1.559 2.221 3.8 2.221 6.528v3.215h-11.108v.098c.096 1.072.579 1.754 1.256 2.436.675.682 1.641.974 2.704.974 1.159 0 2.028-.097 2.705-.292.676-.195 1.642-.487 2.608-.975l1.449 3.8c-.87.682-1.932 1.17-3.285 1.657-1.255.487-2.801.682-4.346.682Zm-.387-15.785c-.869 0-1.545.293-1.931.974-.387.683-.677 1.56-.773 2.534l.096.097h5.217v-.487c0-1.072-.194-1.754-.58-2.24-.58-.683-1.159-.878-2.029-.878Zm-18.063 7.016 2.125-11.498h5.506l-4.443 19.78h-5.12l-3.187-10.523h-.097l-3.187 10.523h-5.12l-4.54-19.682h5.603l2.125 11.595h.096l3.091-11.595h3.864l3.284 11.4Zm-25.598 2.728c0-.487-.29-.974-.869-1.364-.58-.39-1.545-.78-2.994-1.072-2.222-.487-3.96-1.17-5.12-2.046-1.159-.975-1.739-2.241-1.739-3.898 0-1.754.773-3.215 2.126-4.482 1.449-1.266 3.38-1.754 5.795-1.754 2.512 0 4.637.585 6.086 1.754 1.545 1.17 2.222 2.631 2.124 4.58v.097h-5.795c0-.78-.193-1.364-.58-1.754-.386-.39-1.062-.584-1.835-.584-.676 0-1.159.195-1.642.584-.483.39-.676.78-.676 1.364 0 .585.29.975.773 1.364.483.39 1.545.683 2.994.975 2.319.487 4.154 1.17 5.216 2.046 1.16.974 1.739 2.241 1.739 3.995s-.773 3.215-2.318 4.384c-1.546 1.17-3.574 1.754-6.086 1.754-2.608 0-4.733-.682-6.278-2.046-1.546-1.364-2.222-2.825-2.125-4.58v-.097h5.505c0 .975.29 1.657.87 1.949.58.292 1.352.682 2.222.682.869 0 1.449-.195 1.835-.487.579-.292.772-.78.772-1.364ZM42.695 13.446l.193 2.728c.676-.974 1.449-1.753 2.318-2.24.966-.585 1.932-.878 3.091-.878 1.836 0 3.381.683 4.444 1.852 1.062 1.169 1.642 3.215 1.642 5.943v12.375H48.49V20.949c0-1.17-.193-1.852-.676-2.339-.483-.487-1.159-.682-2.028-.682-.58 0-1.063.098-1.546.293a2.64 2.64 0 0 0-1.159.876v14.226h-5.989v-19.78h5.603v-.097Zm-9.273-3.702h-6.086v-4.97h6.086v4.97Zm0 23.58h-6.086v-19.78h6.086v19.78Zm-19.416 0v-15.59h-2.801v-4.288h2.801V11.4c0-2.241.676-3.995 1.932-5.262 1.352-1.266 3.38-1.559 4.83-1.559h3.864v4.97H22.41c-.773 0-1.352.195-1.739.584-.386.39-.58.975-.58 1.754v1.462h3.768v4.287h-3.767v15.492h-6.086v.195ZM2.415 6.43C2.415.487 5.505 0 10.722 0v4.677c-2.415 0-3.38.39-3.38 1.851v7.698c0 1.753.096 3.605-1.353 4.774 1.449 1.17 1.352 2.923 1.352 4.774v7.698c0 1.559.966 1.851 3.381 1.851V38c-5.216 0-8.307-.487-8.307-6.43v-7.796c0-1.266 0-2.63-2.415-2.63V17.05c2.415 0 2.415-1.461 2.415-2.63V6.43Z" fill="#fff"/></svg>