<svg width="162" height="32" fill="none" xmlns="http://www.w3.org/2000/svg"><g clip-path="url(#a)" fill="#282938"><path d="M24.723 14.083a4.362 4.362 0 0 0-1.242 3.492l-.021-.022a5.198 5.198 0 0 1-1.493 4.098 5.155 5.155 0 0 1-4.081 1.499l.021.021a4.353 4.353 0 0 0-2.573.56 4.378 4.378 0 0 0-1.785 1.943 4.4 4.4 0 0 0 .866 4.965 4.352 4.352 0 0 0 4.946.866 4.374 4.374 0 0 0 1.934-1.794 4.4 4.4 0 0 0 .556-2.584l.022.021a5.197 5.197 0 0 1 1.493-4.097 5.155 5.155 0 0 1 4.081-1.499l-.022-.021a4.343 4.343 0 0 0 3.845-1.69 4.385 4.385 0 0 0 .642-4.165 4.375 4.375 0 0 0-3.157-2.778 4.341 4.341 0 0 0-4.028 1.185h-.004ZM15.964 20.36l-.023-.021a4.296 4.296 0 0 0 3.48-1.245 4.33 4.33 0 0 0 1.243-3.493l.022.021a5.198 5.198 0 0 1 1.493-4.097 5.155 5.155 0 0 1 4.081-1.499l-.022-.021a4.354 4.354 0 0 0 2.574-.558 4.378 4.378 0 0 0 1.786-1.942 4.401 4.401 0 0 0-.864-4.967 4.352 4.352 0 0 0-4.947-.868 4.374 4.374 0 0 0-1.934 1.795 4.4 4.4 0 0 0-.555 2.584l-.022-.023a5.196 5.196 0 0 1-1.492 4.098 5.153 5.153 0 0 1-4.082 1.498l.022.023a4.294 4.294 0 0 0-3.48 1.245A4.332 4.332 0 0 0 12 16.383l-.021-.021a5.2 5.2 0 0 1-1.493 4.097 5.156 5.156 0 0 1-4.081 1.499l.021.021a4.354 4.354 0 0 0-2.574.558 4.378 4.378 0 0 0-1.787 1.942 4.401 4.401 0 0 0 .865 4.967 4.352 4.352 0 0 0 4.947.868 4.374 4.374 0 0 0 1.934-1.795 4.4 4.4 0 0 0 .555-2.584l.023.021a5.198 5.198 0 0 1 1.492-4.097 5.155 5.155 0 0 1 4.082-1.499ZM8.005 17.968a4.356 4.356 0 0 0 1.24-3.492l.023.021a5.199 5.199 0 0 1 1.494-4.099 5.156 5.156 0 0 1 4.083-1.497l-.023-.022a4.352 4.352 0 0 0 2.573-.558 4.377 4.377 0 0 0 1.786-1.941 4.4 4.4 0 0 0-.864-4.965 4.36 4.36 0 0 0-4.945-.868 4.374 4.374 0 0 0-1.934 1.793 4.4 4.4 0 0 0-.556 2.584l-.021-.022A5.199 5.199 0 0 1 9.368 9a5.157 5.157 0 0 1-4.081 1.498l.021.022a4.343 4.343 0 0 0-3.845 1.69 4.385 4.385 0 0 0-.64 4.165 4.352 4.352 0 0 0 5.322 2.704 4.355 4.355 0 0 0 1.862-1.111h-.002ZM44.788 6.076h3.527v17.231h-3.527V6.077ZM50.313 17.407a6.274 6.274 0 0 1 1.037-3.482 6.235 6.235 0 0 1 2.792-2.315 6.206 6.206 0 0 1 6.798 1.34 6.28 6.28 0 0 1 1.362 6.82 6.25 6.25 0 0 1-2.295 2.812 6.213 6.213 0 0 1-3.464 1.056 6.138 6.138 0 0 1-4.417-1.802 6.186 6.186 0 0 1-1.813-4.428Zm8.934 0a2.723 2.723 0 0 0-.492-1.488 2.706 2.706 0 0 0-2.786-1.09c-.52.113-.994.377-1.365.76a2.72 2.72 0 0 0 1.94 4.61 2.625 2.625 0 0 0 1.96-.801 2.65 2.65 0 0 0 .743-1.99ZM76.83 11.505v11.207c0 3.966-3.08 5.642-6.206 5.642a5.991 5.991 0 0 1-3.186-.645 6.021 6.021 0 0 1-2.386-2.216l3.009-1.747a2.677 2.677 0 0 0 2.68 1.487 2.334 2.334 0 0 0 1.932-.622 2.352 2.352 0 0 0 .724-1.904V21.63a4.177 4.177 0 0 1-3.433 1.534 5.963 5.963 0 0 1-4.102-1.821 6.011 6.011 0 0 1 0-8.348 5.964 5.964 0 0 1 4.102-1.821 4.162 4.162 0 0 1 3.433 1.534v-1.204l3.433.002ZM73.4 17.17a2.87 2.87 0 0 0-1.676-2.728 2.84 2.84 0 0 0-3.146.545 2.865 2.865 0 0 0-.669 3.133 2.842 2.842 0 0 0 2.647 1.791 2.653 2.653 0 0 0 2.647-1.652c.14-.346.207-.716.197-1.09ZM78.827 17.407a6.273 6.273 0 0 1 1.038-3.482 6.235 6.235 0 0 1 2.791-2.315 6.206 6.206 0 0 1 6.799 1.34 6.278 6.278 0 0 1 1.362 6.82 6.25 6.25 0 0 1-2.295 2.812 6.213 6.213 0 0 1-3.464 1.056 6.137 6.137 0 0 1-4.418-1.802 6.186 6.186 0 0 1-1.813-4.428Zm8.935 0a2.724 2.724 0 0 0-.492-1.488 2.706 2.706 0 0 0-2.786-1.09A2.704 2.704 0 0 0 82.4 16.98a2.727 2.727 0 0 0 1.164 2.766c.443.295.963.453 1.495.453a2.626 2.626 0 0 0 1.96-.801 2.65 2.65 0 0 0 .744-1.99ZM92.934 8.342A2.13 2.13 0 0 1 94.24 6.38a2.106 2.106 0 0 1 2.306.461 2.125 2.125 0 0 1 .458 2.315 2.119 2.119 0 0 1-1.955 1.312 2.134 2.134 0 0 1-1.49-.629 2.15 2.15 0 0 1-.625-1.496Zm.356 3.163h3.528v11.803h-3.533l.005-11.803ZM112.045 17.407a5.938 5.938 0 0 1-3.375 5.67 5.89 5.89 0 0 1-2.244.56 4.4 4.4 0 0 1-3.502-1.44v5.832h-3.527V11.506h3.527v1.108a4.396 4.396 0 0 1 3.502-1.439 5.89 5.89 0 0 1 4.101 1.943 5.926 5.926 0 0 1 1.518 4.29Zm-3.527 0a2.808 2.808 0 0 0-1.774-2.544 2.788 2.788 0 0 0-3.026.654 2.828 2.828 0 0 0-.746 1.439 2.811 2.811 0 0 0 1.203 2.862 2.79 2.79 0 0 0 1.547.468 2.676 2.676 0 0 0 2.041-.81 2.693 2.693 0 0 0 .755-2.069ZM122.928 19.767c0 2.714-2.351 3.87-4.889 3.87a5.133 5.133 0 0 1-2.957-.625 5.16 5.16 0 0 1-2.098-2.183l3.055-1.747c.124.427.39.797.753 1.05.363.254.801.375 1.243.343.845 0 1.269-.26 1.269-.731 0-1.3-5.784-.614-5.784-4.697 0-2.574 2.163-3.872 4.609-3.872.919-.029 1.828.19 2.635.634a5.15 5.15 0 0 1 1.948 1.892l-3.009 1.628a1.713 1.713 0 0 0-1.574-1.038c-.612 0-.989.238-.989.66.005 1.346 5.788.448 5.788 4.816ZM135.812 11.506v11.803h-3.527v-1.11a4.01 4.01 0 0 1-3.36 1.44c-2.375 0-4.394-1.699-4.394-4.888v-7.245h3.527v6.726a1.96 1.96 0 0 0 .527 1.55 1.94 1.94 0 0 0 1.518.596c1.293 0 2.186-.754 2.186-2.43v-6.439l3.523-.003ZM156.035 16.062v7.246h-3.527v-6.94c0-1.18-.565-1.935-1.693-1.935-1.175 0-1.835.826-1.835 2.219v6.656h-3.525v-6.94c0-1.18-.564-1.935-1.693-1.935-1.176 0-1.834.826-1.834 2.219v6.656h-3.527V11.505h3.527v1.085a3.6 3.6 0 0 1 3.151-1.415 3.483 3.483 0 0 1 1.743.37c.54.274 1 .682 1.336 1.187a3.873 3.873 0 0 1 3.409-1.557c2.699.001 4.468 1.936 4.468 4.887ZM159.018 11.433a2.623 2.623 0 0 0 2.617-2.628 2.623 2.623 0 0 0-2.617-2.627 2.623 2.623 0 0 0-2.618 2.627 2.623 2.623 0 0 0 2.618 2.628Z"/></g><defs><clipPath id="a"><path fill="#fff" d="M0 0h161.815v32H0z"/></clipPath></defs></svg>