<svg width="35" height="35" fill="none" xmlns="http://www.w3.org/2000/svg"><g clip-path="url(#a)" fill="#2405F2"><path d="m2.642 9.893 7.25-7.25-1.208-1.21a5.132 5.132 0 0 0-7.25.001A5.092 5.092 0 0 0-.069 5.059c0 1.37.533 2.657 1.501 3.625l1.209 1.209ZM4.092 11.343l2.9-2.9 4.156 4.155-2.9 2.9-4.156-4.155ZM8.442 6.992l2.9-2.9 4.156 4.155-2.9 2.9-4.156-4.155ZM24.964 30.764l-.478.478 9.04 3.616a1.022 1.022 0 0 0 1.106-.227c.29-.29.379-.725.227-1.106l-3.616-9.04-6.279 6.279ZM19.365 26.615l2.9-2.9 3.424 3.423-2.9 2.9-3.424-3.423ZM23.715 22.266l2.9-2.9 3.424 3.423-2.9 2.9-3.424-3.423ZM8.806 27.508c-.4.4-.4 1.05 0 1.45l2.659 2.658-3.016 3.015c-.4.4-1.05.4-1.45 0L.232 27.864c-.4-.4-.4-1.05 0-1.45L26.414.232c.4-.4 1.05-.4 1.45 0l6.767 6.767a1.022 1.022 0 0 1 0 1.45l-3.015 3.016-3.625-3.626a1.025 1.025 0 1 0-1.45 1.45l3.625 3.626-2.29 2.29-2.659-2.659a1.026 1.026 0 0 0-1.45 1.45l2.659 2.659-2.29 2.29-3.626-3.625a1.026 1.026 0 0 0-1.45 1.45l3.625 3.625-2.29 2.29-2.658-2.658a1.025 1.025 0 0 0-1.45 1.45l2.658 2.658-2.29 2.29L13.03 22.8a1.026 1.026 0 0 0-1.45 1.45l3.625 3.626-2.29 2.29-2.659-2.659c-.4-.4-1.05-.4-1.45 0Z"/></g><defs><clipPath id="a"><path fill="#fff" d="M0 0h35v35H0z"/></clipPath></defs></svg>